HIERARCHY
ROOT Hips
{
  OFFSET -32.5998 29.0326 120.673
  CHANNELS 6 Xposition Yposition Zposition Zrotation Xrotation Yrotation
  JOINT LeftUpLeg
  {
    OFFSET 8.64259 1.95398 -2.38835
    CHANNELS 3 Zrotation Xrotation Yrotation
    JOINT LeftLeg
    {
      OFFSET 43.7702 0 0
      CHANNELS 3 Zrotation Xrotation Yrotation
      JOINT LeftFoot
      {
        OFFSET 40.6238 0 0
        CHANNELS 3 Zrotation Xrotation Yrotation
        JOINT LeftToeBase
        {
          OFFSET 12.7242 0 0
          CHANNELS 3 Zrotation Xrotation Yrotation
          End Site
          {
            OFFSET 0 0 0
          }
        }
      }
    }
  }
  JOINT RightUpLeg
  {
    OFFSET -8.2249 1.95398 -2.59336
    CHANNELS 3 Zrotation Xrotation Yrotation
    JOINT RightLeg
    {
      OFFSET 43.5653 0 0
      CHANNELS 3 Zrotation Xrotation Yrotation
      JOINT RightFoot
      {
        OFFSET 40.6238 0 0
        CHANNELS 3 Zrotation Xrotation Yrotation
        JOINT RightToeBase
        {
          OFFSET 12.7242 0 0
          CHANNELS 3 Zrotation Xrotation Yrotation
          End Site
          {
            OFFSET 0 0 0
          }
        }
      }
    }
  }
  JOINT Spine
  {
    OFFSET 0.165834 0.87714 6.61349
    CHANNELS 3 Zrotation Xrotation Yrotation
    JOINT Spine1
    {
      OFFSET 7.38963 1.71661e-005 0
      CHANNELS 3 Zrotation Xrotation Yrotation
      JOINT Spine2
      {
        OFFSET 11.9445 1.14441e-005 0
        CHANNELS 3 Zrotation Xrotation Yrotation
        JOINT Spine3
        {
          OFFSET 14.7254 4.19617e-005 0
          CHANNELS 3 Zrotation Xrotation Yrotation
          JOINT Spine4
          {
            OFFSET 10.9679 0 0
            CHANNELS 3 Zrotation Xrotation Yrotation
            JOINT RightShoulder
            {
              OFFSET 2.46616 -1.6653 3.69651
              CHANNELS 3 Zrotation Xrotation Yrotation
              JOINT RightArm
              {
                OFFSET 13.0012 0 0
                CHANNELS 3 Zrotation Xrotation Yrotation
                JOINT RightForeArm
                {
                  OFFSET 28.7848 1.62311e-005 0
                  CHANNELS 3 Zrotation Xrotation Yrotation
                  JOINT RightHand
                  {
                    OFFSET 26.5688 1.62095e-005 0
                    CHANNELS 3 Zrotation Xrotation Yrotation
                    End Site
                    {
                      OFFSET 0 0 0
                    }
                  }
                }
              }
            }
            JOINT LeftShoulder
            {
              OFFSET 2.38034 -1.29275 -3.7523
              CHANNELS 3 Zrotation Xrotation Yrotation
              JOINT LeftArm
              {
                OFFSET 16.3182 6.07031e-005 0
                CHANNELS 3 Zrotation Xrotation Yrotation
                JOINT LeftForeArm
                {
                  OFFSET 27.0901 0 0
                  CHANNELS 3 Zrotation Xrotation Yrotation
                  JOINT LeftHand
                  {
                    OFFSET 24.5451 1.51738e-005 0
                    CHANNELS 3 Zrotation Xrotation Yrotation
                    End Site
                    {
                      OFFSET 0 0 0
                    }
                  }
                }
              }
            }
            JOINT Neck
            {
              OFFSET 5.0226 -0.0266342 0
              CHANNELS 3 Zrotation Xrotation Yrotation
              JOINT Head
              {
                OFFSET 6.69364 2.86102e-005 0
                CHANNELS 3 Zrotation Xrotation Yrotation
                End Site
                {
                  OFFSET 0 0 0
                }
              }
            }
          }
        }
      }
    }
  }
}
MOTION
Frames:	9
Frame Time:	0.0416667
-158.604 99.5915 108.912 103.824 -67.8496 100.907 -173.35 -4.62618 91.0521 -7.44234 -3.47275 0.92704 67.6713 3.85178 -3.47929 17.3262 -9.36304 8.02632 170.64 -2.90916 85.9806 -10.2179 -13.5732 -0.0687911 65.07 -3.10705 -0.286461 26.5132 0.146002 3.29106 0.254898 7.57204 -90.2026 11.7305 0.412018 -0.447137 0.0595644 0.391926 -0.464838 -22.4758 0.52734 -0.302635 -2.46314 0.527348 -0.302636 93.8152 -23.8465 -100.96 48.1241 -20.069 -8.27246 -12.5663 -14.7394 -23.0143 -11.5772 -0.223801 -3.04363 -85.694 -48.6039 84.9919 -28.1015 25.6425 -12.7055 6.29382 -7.79998 -11.1977 -1.499 -0.0917307 -3.55217 3.17719 -6.8476 0.619708 -9.51399 -6.7102 -2.98041 
-158.618 99.6307 108.883 103.66 -67.7542 100.719 -173.397 -4.37583 90.9662 -7.82168 -4.52289 0.992426 67.3433 3.25308 -4.9228 17.8727 -8.79217 7.54415 170.646 -2.95835 85.9666 -10.0303 -13.0383 -0.0798429 65.2008 -3.16615 0.330831 26.9187 0.272677 2.16275 0.202141 7.55589 -90.1808 11.7625 0.317157 -0.393966 0.0915518 0.29953 -0.407551 -22.4436 0.420897 -0.280434 -2.431 0.420909 -0.280429 93.3403 -24.8219 -101.683 46.8803 -20.4748 -8.5492 -11.8203 -13.6754 -22.3412 -11.7503 -0.179408 -3.53275 -86.354 -48.5658 83.9755 -28.0963 25.5261 -11.3995 5.82533 -9.44824 -12.3093 -2.09196 -0.0917366 -3.49226 2.94268 -6.62288 0.259434 -9.21441 -6.45296 -2.65722 
-158.626 99.6049 108.86 103.859 -67.7349 100.9 -173.44 -4.59935 90.9763 -7.56812 -4.23499 1.05837 68.0788 3.87739 -4.83152 17.0137 -9.79216 8.46937 170.616 -2.84382 85.923 -10.4059 -12.9287 -0.060705 65.6513 -3.29422 1.13881 25.6435 0.912104 1.84023 0.210343 7.55688 -90.1838 11.7606 0.332037 -0.401438 0.089615 0.314053 -0.415669 -22.4456 0.437323 -0.28309 -2.43295 0.437337 -0.283093 93.4266 -24.7865 -101.506 46.9088 -20.5121 -8.60073 -11.8083 -13.8233 -22.2477 -11.7565 -0.174168 -3.58919 -86.1723 -48.4875 84.2418 -28.2069 26.359 -11.4494 5.15722 -11.1427 -12.594 -2.97383 -0.0916205 -4.52724 3.15027 -6.5041 0.305503 -9.43947 -6.34374 -2.53494 
-158.692 99.6162 108.888 104.144 -67.5792 101.377 -173.376 -4.43306 91.2624 -7.96564 -4.18727 1.19113 68.1115 3.74405 -4.94839 17.1459 -9.537 8.15543 170.807 -3.17915 86.2468 -10.1785 -12.8502 -0.112978 65.4291 -3.25412 0.857306 25.8005 0.846254 1.8317 0.203808 7.5617 -90.1993 11.7509 0.311773 -0.430226 0.0799174 0.292538 -0.443533 -22.4552 0.426654 -0.316638 -2.44254 0.426659 -0.316636 93.4789 -24.8397 -101.374 46.9112 -20.6934 -8.71265 -11.7608 -14.0699 -22.0978 -11.8283 -0.193264 -3.40074 -85.9915 -48.5502 84.528 -27.7085 26.8858 -11.5091 4.95184 -11.6044 -12.8713 -2.8386 -0.0915772 -4.85712 2.98853 -6.49941 0.281302 -9.42734 -6.32732 -2.70667 
-158.772 99.6164 108.908 104.668 -67.5141 101.793 -173.333 -4.67362 91.2711 -7.89873 -3.95539 1.1475 67.9691 3.75234 -4.79548 16.6632 -9.80601 8.1584 170.802 -3.06707 86.2545 -10.8758 -13.0031 -0.13541 65.7684 -3.46634 0.512576 25.4451 0.982294 1.90155 0.20834 7.56934 -90.2085 11.7357 0.316544 -0.448885 0.0647043 0.296484 -0.462393 -22.4704 0.436807 -0.333002 -2.45773 0.436817 -0.333003 93.456 -24.5558 -101.519 47.1757 -20.2951 -8.57277 -11.9245 -14.452 -22.0954 -11.954 -0.203059 -3.32104 -86.244 -49.2594 84.2512 -27.1845 26.4421 -11.1506 5.10783 -11.418 -13.2062 -2.34668 -0.091597 -4.70894 2.69446 -6.32433 0.840936 -9.41327 -6.22782 -3.07227 
-158.874 99.6312 108.968 104.797 -67.2739 101.691 -173.481 -4.91577 91.0959 -7.61625 -3.87367 1.26923 67.7023 3.6943 -4.71258 17.3826 -9.49159 8.30263 170.704 -3.04694 86.1105 -11.1539 -12.7861 -0.134465 65.9687 -3.55016 0.536275 25.2357 1.08925 1.84728 0.210326 7.55261 -90.1913 11.7691 0.328359 -0.416056 0.0981487 0.309733 -0.430113 -22.437 0.438232 -0.298134 -2.42438 0.438229 -0.298137 93.4953 -24.6013 -101.417 47.3175 -20.5361 -8.28309 -11.8316 -14.0958 -22.2381 -11.6898 -0.199159 -3.3176 -85.8525 -48.6155 84.7506 -27.6098 26.7895 -11.3535 4.97369 -11.6057 -12.7861 -2.11389 -0.0915793 -4.84173 2.18639 -6.38967 0.833988 -9.31443 -6.30935 -2.77286 
-159.06 99.6274 109.107 105.364 -67.0572 102.193 -173.422 -5.33305 91.2433 -7.26642 -3.59277 1.34721 67.5545 3.77609 -4.57474 17.3461 -9.44383 8.18394 170.77 -3.3496 86.2396 -11.2756 -12.5845 -0.183865 66.0887 -3.556 0.50658 25.2638 1.07009 1.87158 0.243131 7.58686 -90.2046 11.7008 0.387676 -0.448288 0.0297872 0.367573 -0.46492 -22.5055 0.504478 -0.311053 -2.49284 0.504481 -0.311058 93.5588 -24.1847 -101.417 47.9988 -20.3264 -8.29763 -11.893 -14.4222 -22.131 -11.7916 -0.237496 -2.94095 -85.9848 -48.2988 84.5 -28.0882 25.9902 -11.3889 5.46747 -10.7725 -12.4158 -2.33893 -0.0915568 -5.00503 1.90869 -6.30202 0.957904 -9.26626 -6.25271 -2.60444 
-159.359 99.6397 109.313 105.617 -66.74 102.43 -173.234 -5.41044 91.5458 -7.59062 -3.15233 1.31672 67.5808 3.58616 -5.47366 18.0183 -10.1313 10.0322 171.062 -3.78053 86.6105 -11.0913 -11.8414 -0.335441 66.1743 -3.58882 0.550862 25.0804 1.15523 1.85479 0.240061 7.61827 -90.261 11.6381 0.355254 -0.557078 -0.0329417 0.330404 -0.572178 -22.5679 0.506243 -0.424557 -2.55523 0.506257 -0.424555 93.7874 -23.3374 -101.193 48.5406 -20.489 -8.54608 -11.599 -13.438 -21.9871 -11.3551 -0.141163 -3.89419 -85.6346 -49.4997 85.2094 -26.3985 26.6988 -11.543 5.12285 -11.391 -12.6575 -2.45341 -0.0916746 -5.22147 2.16446 -6.10449 1.69933 -9.93316 -6.16085 -2.59502 
-159.782 99.6238 109.594 105.817 -65.8853 102.489 -172.768 -5.73117 92.1412 -7.27051 -1.99025 1.03018 67.4287 3.74125 -5.42662 18.0722 -9.91205 9.70245 171.287 -4.14412 86.9906 -11.4022 -10.9311 -0.418275 66.4612 -3.64935 0.338362 24.9739 1.20547 1.84259 0.223472 7.6217 -90.2788 11.631 0.313922 -0.58816 -0.0400769 0.287732 -0.601414 -22.5748 0.476175 -0.466628 -2.56216 0.476176 -0.466628 93.5485 -23.5686 -101.648 48.2983 -20.1421 -8.23586 -11.3985 -13.3074 -21.5473 -11.6449 -0.130306 -4.02495 -85.8664 -48.5403 84.7183 -28.0231 24.5928 -10.35 5.52113 -11.0432 -12.6418 -0.880797 -0.0745832 -3.14419 0.79511 -6.0378 1.65791 -9.24735 -6.09991 -2.46406 
